<?xml version="1.0" encoding="iso-8859-1"?>
<!-- Generator: Adobe Illustrator 19.0.0, SVG Export Plug-In . SVG Version: 6.00 Build 0)  -->
<svg version="1.1" id="Capa_1" xmlns="http://www.w3.org/2000/svg" xmlns:xlink="http://www.w3.org/1999/xlink" x="0px" y="0px"
	 viewBox="0 0 512 512" style="enable-background:new 0 0 512 512;" xml:space="preserve">
<g>
	<g>
		<path d="M121,166c-49.629,0-90,40.371-90,90c0,49.629,40.371,90,90,90c49.629,0,90-40.371,90-90C211,206.371,170.629,166,121,166z
			"/>
	</g>
</g>
<g>
	<g>
		<path d="M391,0c-49.629,0-90,41.371-90,91c0,11.816,2.428,23.042,6.584,33.389l-93.322,57.036
			c6.261,7.811,11.771,16.197,15.942,25.424l93.257-56.997C339.972,168.776,363.97,181,391,181c49.629,0,90-40.371,90-90
			C481,41.371,440.629,0,391,0z"/>
	</g>
</g>
<g>
	<g>
		<path d="M391,331c-27.03,0-51.028,12.224-67.538,31.148l-93.257-56.997c-4.171,9.227-9.681,17.613-15.941,25.424l93.319,57.036
			C303.426,397.956,301,409.184,301,421c0,49.629,40.371,91,90,91c49.629,0,90-41.371,90-91C481,371.371,440.629,331,391,331z"/>
	</g>
</g>
<g>
</g>
<g>
</g>
<g>
</g>
<g>
</g>
<g>
</g>
<g>
</g>
<g>
</g>
<g>
</g>
<g>
</g>
<g>
</g>
<g>
</g>
<g>
</g>
<g>
</g>
<g>
</g>
<g>
</g>
</svg>
